<svg width="412" height="732" viewBox="0 0 412 732" fill="none" xmlns="http://www.w3.org/2000/svg">
    <g opacity="0.5" clip-path="url(#clip0_2322_31814)">
        <path opacity="0.8" fill-rule="evenodd" clip-rule="evenodd" d="M323.184 286.419L323.539 286.438L325.58 285.746H325.443C324.692 285.966 323.939 286.191 323.184 286.42M315.787 288.693L316.737 288.805C317.762 288.443 318.784 288.083 319.802 287.727L318.958 287.703C317.905 288.028 316.848 288.357 315.786 288.692L315.787 288.693ZM311.724 288.293L312.182 288.331L314.3 287.656H314.036C313.266 287.864 312.493 288.076 311.718 288.292L311.724 288.293ZM308.457 291.052C308.906 291.135 309.353 291.218 309.797 291.306C311.078 290.839 312.352 290.377 313.62 289.92C313.188 289.879 312.754 289.836 312.318 289.798C311.032 290.208 309.743 290.626 308.45 291.051L308.457 291.052ZM304.404 290.378L305.433 290.538C306.475 290.191 307.514 289.848 308.55 289.509L307.603 289.453C306.537 289.755 305.469 290.062 304.398 290.375L304.404 290.378ZM300.366 289.831L300.935 289.9L303.141 289.248L302.75 289.236C301.954 289.43 301.157 289.628 300.36 289.829L300.366 289.831ZM301.115 293.51C301.648 293.65 302.178 293.792 302.705 293.937C304.188 293.38 305.665 292.829 307.134 292.286C306.604 292.195 306.073 292.105 305.539 292.02C304.068 292.508 302.592 293.004 301.109 293.508L301.115 293.51ZM297.142 292.546C297.61 292.651 298.078 292.759 298.544 292.87C299.837 292.426 301.124 291.987 302.405 291.553C301.948 291.491 301.49 291.431 301.031 291.374C299.737 291.756 298.438 292.146 297.135 292.544L297.142 292.546ZM293.129 291.708L294.247 291.933C295.309 291.605 296.367 291.281 297.42 290.96L296.378 290.858C295.295 291.134 294.21 291.417 293.122 291.706L293.129 291.708ZM289.151 290.998L289.821 291.111L292.113 290.493L291.598 290.457L289.151 290.998ZM293.735 296.063C294.32 296.267 294.901 296.476 295.479 296.689C297.125 296.055 298.762 295.429 300.39 294.811C299.799 294.661 299.205 294.513 298.608 294.368C296.99 294.923 295.364 295.487 293.73 296.06L293.735 296.063ZM289.889 294.798C290.437 294.967 290.982 295.14 291.524 295.316C293.01 294.792 294.488 294.274 295.958 293.762C295.411 293.644 294.861 293.529 294.308 293.416C292.839 293.868 291.364 294.328 289.883 294.796L289.889 294.798ZM285.97 293.657C286.461 293.792 286.947 293.929 287.429 294.068C288.73 293.653 290.024 293.243 291.312 292.84C290.831 292.753 290.348 292.668 289.862 292.585C288.571 292.934 287.271 293.291 285.965 293.655L285.97 293.657ZM282.022 292.64C282.423 292.737 282.821 292.835 283.219 292.935C284.296 292.635 285.369 292.335 286.439 292.036L285.305 291.87C284.212 292.124 283.116 292.379 282.017 292.638L282.022 292.64ZM278.096 291.741L278.867 291.909L281.239 291.341L280.607 291.266C279.77 291.421 278.932 291.579 278.093 291.741H278.096ZM274.299 290.969L274.403 290.989L274.985 290.877L274.299 290.969ZM286.28 298.714C286.893 298.992 287.5 299.276 288.104 299.563C289.893 298.858 291.672 298.162 293.44 297.477C292.815 297.258 292.183 297.044 291.545 296.834C289.793 297.45 288.035 298.077 286.27 298.714H286.28ZM282.593 297.141C283.186 297.381 283.769 297.634 284.354 297.882C286.005 297.283 287.646 296.694 289.278 296.114C288.675 295.929 288.068 295.747 287.457 295.57C285.838 296.086 284.213 296.609 282.583 297.14L282.593 297.141ZM278.821 295.679C279.385 295.885 279.944 296.096 280.501 296.308C281.986 295.821 283.465 295.341 284.936 294.866C284.372 294.716 283.805 294.566 283.233 294.416C281.764 294.833 280.291 295.255 278.812 295.682L278.821 295.679ZM274.968 294.346C275.478 294.514 275.986 294.684 276.49 294.859C277.795 294.479 279.094 294.104 280.387 293.735C279.884 293.617 279.379 293.503 278.87 293.39C277.578 293.704 276.278 294.023 274.968 294.346ZM271.092 293.124L272.359 293.51C273.447 293.237 274.532 292.968 275.612 292.701L274.395 292.46C273.301 292.678 272.201 292.899 271.095 293.124H271.092ZM267.231 292.015L268.114 292.26L270.556 291.758L269.784 291.626L267.231 292.015ZM263.515 291.04L263.759 291.102L265.098 290.888H265.076L263.515 291.04ZM278.745 301.458C279.37 301.812 279.985 302.178 280.601 302.543C282.495 301.782 284.379 301.033 286.253 300.295C285.609 300.001 284.96 299.712 284.307 299.429C282.465 300.095 280.613 300.771 278.748 301.458H278.745ZM275.231 299.566C275.85 299.885 276.455 300.218 277.065 300.545C278.838 299.89 280.602 299.243 282.356 298.603C282.128 298.509 281.907 298.41 281.678 298.317C281.27 298.155 280.861 297.995 280.451 297.836C278.722 298.404 276.983 298.98 275.234 299.566H275.231ZM271.617 297.788C272.219 298.072 272.808 298.369 273.403 298.661C275.045 298.11 276.677 297.566 278.299 297.029C277.684 296.805 277.065 296.584 276.441 296.368C274.845 296.835 273.238 297.309 271.62 297.788H271.617ZM267.924 296.125C268.497 296.372 269.057 296.632 269.622 296.886C271.112 296.436 272.594 295.996 274.069 295.567C273.488 295.378 272.904 295.19 272.316 295.005C270.863 295.373 269.4 295.746 267.927 296.125H267.924ZM264.167 294.567C264.688 294.774 265.199 294.994 265.716 295.205C267.029 294.866 268.336 294.529 269.637 294.194C269.114 294.044 268.59 293.894 268.065 293.744C266.774 294.014 265.475 294.289 264.17 294.567H264.167ZM260.382 293.112C260.831 293.279 261.278 293.446 261.722 293.614C262.819 293.377 263.911 293.143 264.999 292.912L263.686 292.575C262.595 292.75 261.494 292.929 260.382 293.112ZM256.62 291.773L257.599 292.11L260.099 291.693L259.208 291.486L256.62 291.773ZM252.986 290.564L253.371 290.689L254.82 290.522L254.62 290.48L252.986 290.564ZM84.0791 83.4146C83.3561 84.3823 82.6279 85.3512 81.9111 86.3201L81.8726 86.4122C82.5706 85.4939 83.2811 84.5756 83.9854 83.6585L84.0791 83.4146ZM271.157 304.286C271.782 304.722 272.413 305.16 273.032 305.611C275.007 304.805 276.973 304.007 278.928 303.219C278.28 302.847 277.63 302.478 276.97 302.118C275.043 302.829 273.105 303.552 271.157 304.285V304.286ZM267.839 302.068C268.464 302.471 269.089 302.882 269.702 303.296C271.57 302.593 273.427 301.898 275.274 301.211C274.626 300.872 273.972 300.539 273.313 300.211C271.499 300.824 269.674 301.442 267.839 302.067V302.068ZM264.419 299.958C265.044 300.326 265.648 300.71 266.258 301.089C268.007 300.49 269.747 299.897 271.477 299.312C270.834 299.008 270.181 298.712 269.529 298.413C267.836 298.92 266.132 299.435 264.419 299.957V299.958ZM260.897 297.961C261.505 298.298 262.098 298.642 262.699 298.983C264.317 298.488 265.927 298.001 267.528 297.522C266.903 297.25 266.26 296.99 265.627 296.725C264.059 297.128 262.482 297.54 260.897 297.96V297.961ZM257.288 296.064C257.871 296.361 258.444 296.665 259.02 296.963C260.491 296.571 261.955 296.185 263.412 295.803C262.822 295.569 262.227 295.337 261.627 295.11C260.188 295.424 258.742 295.741 257.288 296.063V296.064ZM253.623 294.26C254.165 294.518 254.704 294.778 255.239 295.04C256.539 294.75 257.833 294.464 259.12 294.181C258.579 293.985 258.035 293.79 257.488 293.598C256.207 293.814 254.918 294.035 253.623 294.259V294.26ZM249.941 292.555C250.413 292.767 250.889 292.975 251.357 293.19L254.635 292.62L253.245 292.161C252.15 292.289 251.048 292.42 249.941 292.554V292.555ZM246.295 290.955C246.654 291.108 247.024 291.255 247.382 291.412L249.908 291.102L248.906 290.795L246.295 290.955ZM242.773 289.481L243.294 289.695L244.833 289.594L244.454 289.482L242.773 289.481ZM89.7174 75.9457C88.8496 77.0821 87.9786 78.2195 87.1191 79.357L86.9327 79.8257C87.7838 78.7276 88.6465 77.6317 89.507 76.5347L89.7174 75.9457ZM91.4625 71.2362C90.7123 72.2343 89.9581 73.2336 89.2163 74.2328L89.1184 74.4643C89.8477 73.5112 90.5873 72.5603 91.3208 71.6083L91.4625 71.2362ZM93.2992 66.4975L92.7376 67.2562L93.2814 66.5436L93.2992 66.4975ZM263.437 307.21C264.055 307.735 264.676 308.257 265.279 308.796C267.331 307.946 269.373 307.105 271.405 306.273C270.763 305.812 270.097 305.374 269.442 304.93C267.452 305.681 265.45 306.441 263.437 307.21ZM260.32 304.66C260.945 305.151 261.57 305.647 262.178 306.152C264.128 305.407 266.066 304.67 267.992 303.941C267.345 303.515 266.678 303.106 266.012 302.691C264.127 303.34 262.23 303.996 260.32 304.66ZM257.099 302.214C257.724 302.673 258.349 303.14 258.96 303.61C260.797 302.97 262.624 302.336 264.441 301.711C263.792 301.318 263.131 300.936 262.47 300.554C260.689 301.1 258.898 301.654 257.099 302.214ZM253.786 299.867C254.411 300.295 255.019 300.731 255.632 301.167C257.349 300.631 259.057 300.102 260.755 299.579C260.113 299.219 259.464 298.864 258.809 298.514C257.144 298.959 255.47 299.41 253.786 299.867ZM250.387 297.614C250.997 298.005 251.588 298.41 252.188 298.807C253.773 298.376 255.35 297.949 256.919 297.527C256.294 297.205 255.669 296.88 255.034 296.564C253.494 296.91 251.945 297.26 250.387 297.614ZM246.899 295.45C247.488 295.806 248.062 296.171 248.643 296.53C250.083 296.201 251.516 295.876 252.943 295.554C252.346 295.266 251.755 294.974 251.15 294.691C249.741 294.941 248.324 295.194 246.899 295.45ZM243.368 293.375C243.917 293.69 244.459 294.008 245.003 294.326C246.278 294.094 247.547 293.865 248.81 293.641C248.257 293.392 247.713 293.14 247.154 292.896C245.898 293.053 244.637 293.212 243.368 293.374V293.375ZM239.819 291.388C240.305 291.653 240.791 291.919 241.278 292.187L244.507 291.773C244.024 291.571 243.549 291.365 243.062 291.164L239.819 291.388ZM236.297 289.496C236.681 289.7 237.072 289.899 237.454 290.103L239.969 289.922L238.863 289.484L236.297 289.496ZM232.901 287.737C233.12 287.85 233.345 287.962 233.564 288.075L235.139 288.061L234.59 287.854L232.901 287.737ZM95.4859 68.4746C94.4858 69.7537 93.4857 71.0339 92.4991 72.3141L92.2084 73.0897C93.1939 71.8432 94.1878 70.5967 95.1901 69.3502L95.4859 68.4746ZM97.1153 63.7899C96.2214 64.9521 95.3275 66.1131 94.4441 67.2742L94.2076 67.8733C95.0869 66.7493 95.9787 65.6253 96.8653 64.4935L97.1153 63.7899ZM98.8395 59.0692C98.0612 60.0976 97.2768 61.1283 96.5121 62.1579L96.3777 62.4838C97.1341 61.4992 97.9019 60.5168 98.6697 59.5322L98.8395 59.0692ZM100.646 54.3484C100.075 55.1172 99.5 55.8872 98.9343 56.6571C99.4823 55.9344 100.039 55.2139 100.591 54.4912L100.646 54.3484ZM255.623 310.211C256.22 310.828 256.824 311.441 257.407 312.072C259.538 311.178 261.656 310.294 263.762 309.42C263.137 308.871 262.492 308.345 261.853 307.811C259.79 308.602 257.714 309.403 255.626 310.215L255.623 310.211ZM252.719 307.323C253.329 307.908 253.94 308.493 254.536 309.091C256.568 308.303 258.59 307.524 260.601 306.752C259.965 306.236 259.308 305.74 258.658 305.236C256.691 305.926 254.711 306.623 252.721 307.326L252.719 307.323ZM249.71 304.531C250.329 305.086 250.946 305.644 251.551 306.21C253.478 305.528 255.396 304.854 257.303 304.187C256.659 303.702 255.998 303.233 255.341 302.759C253.476 303.345 251.6 303.937 249.712 304.534L249.71 304.531ZM246.608 301.833C247.233 302.358 247.849 302.888 248.458 303.423C250.273 302.847 252.079 302.278 253.875 301.714C253.227 301.265 252.569 300.815 251.909 300.375C250.154 300.857 248.387 301.343 246.61 301.834L246.608 301.833ZM243.421 299.219C244.046 299.712 244.649 300.211 245.257 300.713C246.953 300.241 248.641 299.776 250.32 299.317C249.679 298.897 249.029 298.484 248.376 298.072C246.734 298.451 245.082 298.833 243.421 299.219ZM240.157 296.685C240.765 297.145 241.359 297.612 241.957 298.078C243.522 297.712 245.081 297.349 246.633 296.991C246.006 296.603 245.373 296.222 244.732 295.847C243.215 296.123 241.69 296.403 240.157 296.687V296.685ZM236.83 294.231C237.418 294.654 237.99 295.085 238.569 295.513C239.991 295.248 241.407 294.986 242.815 294.726C242.211 294.377 241.607 294.026 240.993 293.681C239.612 293.862 238.224 294.045 236.83 294.232V294.231ZM233.453 291.855C234.005 292.237 234.544 292.622 235.09 293.006L238.857 292.503C238.294 292.194 237.738 291.883 237.168 291.577L233.453 291.855ZM230.056 289.555C230.551 289.884 231.04 290.217 231.531 290.547L234.736 290.302C234.238 290.043 233.748 289.78 233.244 289.516L230.056 289.555ZM226.699 287.352L227.905 288.139L230.429 288.107C230.032 287.907 229.641 287.708 229.241 287.509L226.699 287.352ZM223.461 285.282L224.212 285.754L225.849 285.85L225.173 285.522L223.461 285.282ZM101.371 61.026C100.254 62.4227 99.143 63.8206 98.0373 65.2196L97.6758 66.2514C98.7836 64.8779 99.8997 63.5048 101.024 62.132L101.371 61.026ZM102.884 56.3694C101.861 57.6687 100.844 58.968 99.8334 60.2673L99.5052 61.1575C100.514 59.8889 101.532 58.6207 102.558 57.3528L102.884 56.3694ZM104.492 51.6767C103.576 52.8625 102.658 54.0495 101.751 55.2364L101.486 55.9175C102.388 54.7666 103.302 53.6179 104.215 52.468L104.492 51.6767ZM106.195 46.9639C105.391 48.0215 104.587 49.077 103.793 50.1346L103.627 50.5426C104.41 49.5311 105.204 48.5195 105.997 47.5011L106.195 46.9639ZM107.98 42.2432C107.302 43.1525 106.626 44.0606 105.951 44.9699L105.904 45.0823C106.556 44.2247 107.219 43.3694 107.878 42.5118L107.98 42.2432ZM247.723 313.293C248.293 314.006 248.869 314.714 249.423 315.44C251.621 314.51 253.809 313.587 255.986 312.673C255.388 312.033 254.771 311.411 254.159 310.786C252.025 311.617 249.88 312.453 247.723 313.293ZM245.042 310.056C245.628 310.74 246.217 311.421 246.788 312.115C248.894 311.291 250.988 310.474 253.071 309.664C252.456 309.054 251.821 308.464 251.196 307.866C249.154 308.588 247.103 309.318 245.042 310.056ZM242.259 306.909C242.858 307.566 243.458 308.22 244.043 308.886C246.048 308.168 248.043 307.456 250.027 306.751C249.402 306.171 248.753 305.608 248.111 305.039C246.171 305.655 244.219 306.279 242.255 306.91L242.259 306.909ZM239.383 303.85C239.99 304.478 240.597 305.105 241.192 305.742C243.093 305.132 244.982 304.528 246.861 303.931C246.224 303.38 245.571 302.842 244.921 302.302C243.085 302.813 241.239 303.329 239.383 303.851V303.85ZM236.421 300.87C237.031 301.468 237.641 302.068 238.239 302.674C240.025 302.172 241.803 301.674 243.572 301.181C242.933 300.662 242.279 300.153 241.629 299.642C239.901 300.046 238.165 300.456 236.421 300.87ZM233.378 297.961C233.987 298.53 234.592 299.102 235.191 299.677C236.858 299.28 238.517 298.887 240.167 298.5C239.531 298.011 238.882 297.527 238.235 297.045L233.378 297.961ZM230.274 295.123C230.875 295.66 231.47 296.201 232.06 296.744L236.65 295.874C236.025 295.418 235.387 294.964 234.751 294.512L230.274 295.123ZM227.12 292.351C227.701 292.853 228.273 293.356 228.844 293.86L233.011 293.289C232.407 292.868 231.798 292.448 231.184 292.03L227.12 292.351ZM223.928 289.643C224.476 290.101 225.012 290.562 225.554 291.021L229.248 290.726C228.679 290.348 228.107 289.969 227.533 289.589L223.928 289.643ZM220.726 287.01C221.222 287.413 221.707 287.818 222.2 288.223L225.351 288.172C224.84 287.843 224.332 287.514 223.816 287.184L220.726 287.01ZM217.558 284.468L218.787 285.451L221.287 285.589C220.871 285.329 220.46 285.067 220.037 284.803L217.558 284.468ZM214.501 282.059L215.322 282.701L216.972 282.926L216.19 282.446L214.501 282.059ZM211.73 279.902L211.813 279.965L212.157 280.044L211.73 279.902ZM107.366 53.6021C106.149 55.0918 104.939 56.5822 103.737 58.0733L103.332 59.3164C104.542 57.8463 105.76 56.3776 106.986 54.9104L107.366 53.6021ZM108.756 48.9826C107.627 50.3853 106.505 51.7891 105.389 53.1941L104.996 54.3327C106.118 52.9495 107.248 51.5677 108.387 50.1875L108.756 48.9826ZM110.247 44.3203C109.212 45.6271 108.182 46.9347 107.158 48.243L106.803 49.2141C107.83 47.9313 108.864 46.6499 109.906 45.3701L110.247 44.3203ZM111.834 39.622C110.901 40.821 109.971 42.0199 109.045 43.2188L108.754 43.9741C109.675 42.8085 110.607 41.6418 111.538 40.4774L111.834 39.622ZM113.511 34.9081C112.688 35.9837 111.865 37.0594 111.052 38.1373L110.837 38.6667C111.643 37.6304 112.459 36.5952 113.273 35.56L113.511 34.9081ZM115.296 30.1289C114.598 31.0596 113.898 31.9891 113.206 32.9209L113.097 33.1816C113.774 32.2971 114.459 31.4147 115.143 30.5313L115.296 30.1289ZM117.152 25.3778L116.878 25.7487L117.143 25.4037L117.152 25.3778ZM239.734 316.437C240.268 317.25 240.807 318.058 241.325 318.884C243.581 317.92 245.827 316.964 248.061 316.017C247.496 315.281 246.915 314.556 246.335 313.839C244.145 314.697 241.945 315.563 239.734 316.437ZM237.287 312.84C237.839 313.627 238.397 314.406 238.935 315.201C241.098 314.346 243.251 313.498 245.394 312.656C244.809 311.948 244.207 311.257 243.608 310.562C241.512 311.317 239.405 312.078 237.287 312.844V312.84ZM234.739 309.335C235.308 310.095 235.885 310.852 236.435 311.622C238.503 310.873 240.561 310.132 242.609 309.4C242.008 308.719 241.386 308.051 240.77 307.387C238.774 308.031 236.763 308.68 234.739 309.335ZM232.101 305.908C232.683 306.642 233.266 307.369 233.834 308.119C235.801 307.48 237.758 306.847 239.706 306.22C239.091 305.568 238.455 304.93 237.83 304.287C235.929 304.823 234.02 305.363 232.101 305.909V305.908ZM229.378 302.553C229.968 303.262 230.559 303.968 231.135 304.688C232.994 304.159 234.844 303.635 236.685 303.115C236.06 302.491 235.424 301.878 234.788 301.262L229.378 302.553ZM226.577 299.262C227.171 299.944 227.766 300.626 228.348 301.314L233.557 300.064C232.932 299.467 232.286 298.879 231.646 298.288L226.577 299.262ZM223.711 296.036C224.304 296.69 224.896 297.346 225.482 298.005L230.335 297.073C229.709 296.504 229.068 295.942 228.431 295.378L223.711 296.036ZM220.794 292.865C221.378 293.49 221.959 294.115 222.537 294.741L227.003 294.116C226.386 293.579 225.753 293.045 225.128 292.511L220.794 292.865ZM217.831 289.747C218.398 290.335 218.961 290.924 219.522 291.514L223.568 291.177C222.969 290.674 222.362 290.174 221.755 289.674L217.831 289.747ZM214.849 286.689C215.387 287.234 215.921 287.779 216.451 288.324L220.03 288.26C219.463 287.798 218.884 287.337 218.316 286.876L214.849 286.689ZM211.868 283.698C212.358 284.185 212.839 284.669 213.327 285.159L216.375 285.323C215.862 284.916 215.343 284.509 214.826 284.101L211.868 283.698ZM208.917 280.792C209.334 281.197 209.734 281.598 210.143 282.002L210.893 282.103L212.56 282.328L211.267 281.324L209.288 280.874L208.917 280.792ZM206.078 278.031L206.932 278.861L208.544 279.227L207.673 278.559L207.499 278.502L206.078 278.031ZM203.512 275.551L203.693 275.725L204.166 275.883L204.05 275.794L203.512 275.551ZM113.455 46.2266C112.153 47.7844 110.861 49.3437 109.576 50.9046L109.148 52.3253C110.446 50.7809 111.751 49.2381 113.065 47.6967C113.195 47.2055 113.323 46.7166 113.455 46.2266ZM114.736 41.6295C113.513 43.1169 112.298 44.605 111.09 46.0939L110.659 47.436C111.876 45.9658 113.103 44.4971 114.338 43.03L114.736 41.6295ZM116.113 36.9942C114.973 38.4014 113.84 39.8094 112.714 41.2181L112.303 42.4264C113.434 41.0416 114.574 39.6588 115.721 38.2778C115.85 37.8462 115.982 37.419 116.113 36.9942ZM117.584 32.3229C116.534 33.6387 115.49 34.956 114.453 36.2748L114.083 37.3066C115.125 36.0178 116.171 34.7301 117.222 33.4435L117.584 32.3229ZM119.146 27.6281C118.197 28.8397 117.253 30.051 116.314 31.2619L115.985 32.1285C116.924 30.9453 117.871 29.7632 118.823 28.5823L119.146 27.6281ZM120.82 22.8601C119.986 23.9492 119.142 25.0395 118.313 26.132L118.052 26.7907C118.878 25.7341 119.713 24.6787 120.552 23.6244L120.82 22.8601ZM122.58 18.0933C121.861 19.0453 121.141 19.9962 120.43 20.9505L120.283 21.3023C120.983 20.3934 121.688 19.4852 122.398 18.5778L122.58 18.0933ZM124.421 13.3333C123.972 13.9413 123.518 14.5505 123.067 15.1586C123.497 14.5966 123.932 14.0279 124.366 13.4614L124.421 13.3333ZM231.656 319.642C232.148 320.557 232.641 321.471 233.114 322.401C235.423 321.409 237.72 320.424 240.006 319.446C239.485 318.61 238.939 317.786 238.395 316.965C236.162 317.85 233.916 318.742 231.656 319.642ZM229.451 315.683C229.964 316.574 230.477 317.463 230.974 318.366L237.591 315.741C237.044 314.932 236.48 314.136 235.924 313.339C233.775 314.117 231.617 314.898 229.451 315.683ZM227.149 311.807C227.679 312.674 228.21 313.542 228.726 314.42L235.058 312.121C234.491 311.334 233.912 310.567 233.329 309.794L227.149 311.807ZM224.76 308.004C225.305 308.848 225.853 309.69 226.384 310.545L232.418 308.579C231.836 307.821 231.238 307.073 230.647 306.325L224.76 308.004ZM222.289 304.267C222.845 305.089 223.404 305.908 223.947 306.739L229.677 305.104C229.082 304.372 228.472 303.643 227.864 302.922L222.289 304.267ZM219.744 300.587C220.307 301.387 220.877 302.184 221.43 302.989L226.828 301.683C226.224 300.975 225.604 300.273 224.988 299.571L219.744 300.587ZM217.139 296.965C217.708 297.741 218.285 298.515 218.839 299.294L223.895 298.313C223.287 297.63 222.662 296.953 222.042 296.272L217.139 296.965ZM214.475 293.391C215.042 294.142 215.614 294.89 216.172 295.639L220.866 294.975C220.257 294.318 219.635 293.665 219.017 293.011L214.475 293.391ZM211.766 289.858C212.327 290.579 212.891 291.299 213.441 292.02L217.747 291.662C217.147 291.035 216.533 290.409 215.924 289.783L212.535 289.845L211.766 289.858ZM209.03 286.374C209.573 287.06 210.121 287.745 210.658 288.43L212.513 288.396L214.546 288.359C213.961 287.764 213.365 287.17 212.775 286.576L211.824 286.525L209.03 286.374ZM206.28 282.943L207.824 284.853L211.249 285.039C210.695 284.488 210.131 283.934 209.572 283.383L206.28 282.943ZM203.537 279.571L204.948 281.299L207.852 281.693C207.347 281.198 206.831 280.699 206.322 280.203L203.537 279.571ZM200.838 276.29L202.038 277.751L204.33 278.273L203.031 277.023L200.838 276.29ZM198.253 273.166L199.105 274.196L200.626 274.705L199.716 273.832L198.253 273.166ZM195.914 270.356L196.147 270.635L196.588 270.837L196.371 270.628L195.914 270.356ZM119.608 38.9342C118.238 40.5392 116.877 42.1469 115.525 43.7572C115.378 44.2798 115.237 44.8025 115.093 45.3251C116.46 43.7291 117.835 42.136 119.218 40.546C119.348 40.0087 119.476 39.4669 119.608 38.9342ZM120.785 34.3551C119.484 35.9024 118.191 37.4513 116.907 39.0016L116.46 40.5122C117.756 38.9814 119.059 37.452 120.371 35.9241C120.506 35.4004 120.647 34.8777 120.78 34.3551H120.785ZM122.048 29.7467C120.823 31.2252 119.607 32.7047 118.402 34.1853L117.956 35.5948C119.177 34.1307 120.407 32.6695 121.645 31.2113C121.776 30.719 121.91 30.2312 122.048 29.7445V29.7467ZM123.411 25.0935C122.267 26.4947 121.13 27.8982 120 29.3039L119.571 30.5762C120.71 29.1915 121.856 27.809 123.009 26.4288L123.411 25.0935ZM124.869 20.411C123.81 21.7253 122.759 23.0422 121.718 24.3618L121.312 25.4992C122.363 24.2044 123.42 22.9118 124.484 21.6215L124.869 20.411ZM126.432 15.6577C125.471 16.8738 124.516 18.0911 123.567 19.3095L123.198 20.293C124.152 19.1 125.111 17.909 126.077 16.7198L126.432 15.6577ZM128.086 10.8897C127.23 11.9942 126.379 13.0995 125.532 14.2055L125.24 14.9473C126.082 13.8773 126.93 12.8083 127.784 11.7406L128.086 10.8897ZM129.825 6.12292C129.087 7.09329 128.353 8.06366 127.622 9.03403L127.44 9.47238C128.158 8.5451 128.884 7.62119 129.609 6.69615L129.825 6.12292ZM131.649 1.35275C131.044 2.16539 130.438 2.98027 129.839 3.79404L129.814 3.85248C130.393 3.09267 130.978 2.33623 131.563 1.57755L131.649 1.35275ZM223.499 322.901C223.945 323.924 224.389 324.948 224.818 325.983L231.842 322.948C231.36 322.009 230.864 321.08 230.364 320.155L223.499 322.901ZM221.547 318.57C222.013 319.571 222.476 320.572 222.926 321.583L229.676 318.885C229.171 317.971 228.654 317.067 228.134 316.164L221.547 318.57ZM219.502 314.315C219.986 315.294 220.468 316.274 220.937 317.264L227.404 314.904C226.883 314.013 226.342 313.13 225.803 312.25L219.502 314.315ZM217.373 310.129C217.873 311.087 218.37 312.047 218.857 313.014L225.03 310.99C224.489 310.123 223.935 309.262 223.378 308.405L217.373 310.129ZM215.166 306.001C215.679 306.941 216.187 307.882 216.691 308.824L222.556 307.138C222.001 306.295 221.436 305.454 220.862 304.615L215.166 306.001ZM212.876 301.923C213.401 302.843 213.922 303.765 214.439 304.688L219.986 303.339C219.417 302.517 218.84 301.696 218.257 300.877L212.876 301.923ZM210.537 297.898C211.069 298.797 211.6 299.697 212.12 300.596L217.335 299.584C216.757 298.782 216.173 297.982 215.581 297.184L212.81 297.576L210.537 297.898ZM208.141 293.915C208.676 294.794 209.208 295.672 209.736 296.551L212.634 296.139L214.601 295.862C214.019 295.081 213.428 294.303 212.836 293.525L208.141 293.915ZM205.704 289.967C206.239 290.823 206.773 291.677 207.297 292.53L211.792 292.156C211.212 291.399 210.621 290.645 210.032 289.889L205.704 289.967ZM203.237 286.059C203.758 286.884 204.29 287.71 204.809 288.532L208.914 288.46C208.339 287.732 207.76 287.003 207.176 286.274L203.237 286.059ZM200.749 282.189C201.261 282.976 201.775 283.77 202.279 284.555L205.962 284.758C205.404 284.064 204.838 283.367 204.274 282.672L200.749 282.189ZM198.256 278.368C198.741 279.107 199.23 279.852 199.708 280.587L202.938 281.036L201.332 279.079L198.256 278.368ZM195.79 274.596L197.122 276.619L199.83 277.246L198.357 275.466L195.79 274.596ZM193.367 270.931L194.502 272.645L196.624 273.367L195.363 271.851L193.367 270.931ZM191.049 267.435L191.304 267.819L191.861 268.659L193.243 269.297L192.34 268.212L191.049 267.435ZM188.972 264.3L189.213 264.665L189.579 264.89L189.304 264.559L188.972 264.3ZM125.796 31.7553C124.378 33.3813 122.97 35.0107 121.571 36.6435C121.425 37.21 121.281 37.7768 121.14 38.3441C122.555 36.7263 123.978 35.1111 125.412 33.4986L125.796 31.7553ZM126.876 27.1919C125.519 28.77 124.172 30.3499 122.833 31.9318C122.68 32.487 122.521 33.0423 122.374 33.5986C123.727 32.0303 125.088 30.465 126.458 28.9026C126.594 28.3317 126.736 27.7618 126.876 27.1919ZM128.036 22.596C126.746 24.1179 125.465 25.6423 124.192 27.1695C124.038 27.6932 123.887 28.217 123.735 28.743C125.022 27.2324 126.318 25.724 127.621 24.2179C127.76 23.6761 127.896 23.1355 128.036 22.596ZM129.301 17.9539C128.08 19.4144 126.868 20.8755 125.664 22.3375L125.209 23.7986C126.423 22.3539 127.646 20.9115 128.876 19.4713L129.301 17.9539ZM130.649 13.2849C129.507 14.6742 128.372 16.0653 127.244 17.4583C127.092 17.9079 126.939 18.3687 126.79 18.8239C127.93 17.4504 129.076 16.078 130.228 14.7068L130.649 13.2849ZM132.108 8.53947C131.048 9.84929 129.995 11.1606 128.949 12.4734L128.518 13.7098C129.57 12.4217 130.629 11.1355 131.695 9.85117L132.108 8.53947ZM133.654 3.78168C132.687 4.99782 131.725 6.21622 130.768 7.43686L130.383 8.48665C131.34 7.29674 132.304 6.10869 133.274 4.92252L133.654 3.78168ZM135.287 -0.989624C134.425 0.116379 133.566 1.22386 132.712 2.33286L132.393 3.15112C133.245 2.0766 134.102 1.00394 134.964 -0.0668335L135.287 -0.989624ZM137.018 -5.78116C136.268 -4.7988 135.517 -3.81757 134.776 -2.83295L134.557 -2.30132C135.292 -3.24471 136.032 -4.18585 136.776 -5.12476L137.018 -5.78116ZM138.835 -10.5851C138.216 -9.75668 137.595 -8.92831 136.98 -8.09769L136.882 -7.87289C137.48 -8.65144 138.081 -9.42886 138.686 -10.2052L138.835 -10.5851ZM215.251 326.202C215.645 327.336 216.036 328.47 216.413 329.618L223.55 326.527C223.117 325.48 222.669 324.443 222.218 323.41L215.251 326.202ZM213.558 321.491C213.975 322.604 214.382 323.719 214.78 324.843L221.643 322.093C221.187 321.068 220.72 320.053 220.248 319.04L213.558 321.491ZM211.779 316.851C212.211 317.945 212.637 319.043 213.056 320.145L219.635 317.736C219.16 316.734 218.674 315.737 218.177 314.746L211.779 316.851ZM209.918 312.272C210.368 313.35 210.81 314.43 211.247 315.512L217.532 313.445C217.037 312.464 216.534 311.487 216.024 310.514L210.21 312.187L209.918 312.272ZM207.979 307.745C208.444 308.806 208.901 309.869 209.35 310.933L209.865 310.785L215.331 309.211C214.821 308.25 214.304 307.292 213.779 306.336L211.493 306.891L207.979 307.745ZM205.979 303.267C206.456 304.313 206.925 305.358 207.387 306.405L211.201 305.476L213.053 305.027C212.528 304.084 211.997 303.142 211.46 302.202L205.979 303.267ZM203.921 298.835C204.407 299.863 204.886 300.891 205.357 301.919L210.696 300.879C210.16 299.954 209.619 299.029 209.072 298.106L203.921 298.835ZM201.812 294.436C202.305 295.448 202.787 296.46 203.27 297.465L208.271 296.76C207.729 295.851 207.181 294.945 206.625 294.042L201.812 294.436ZM199.661 290.069C200.154 291.061 200.643 292.05 201.126 293.036L205.768 292.656C205.221 291.77 204.672 290.883 204.113 289.995L199.661 290.069ZM197.482 285.731C197.974 286.7 198.46 287.666 198.941 288.629L203.212 288.56C202.666 287.695 202.116 286.83 201.562 285.964L197.482 285.731ZM195.278 281.424L196.72 284.234L200.594 284.459L198.967 281.942L195.278 281.424ZM193.063 277.153L194.463 279.85L197.917 280.337L196.335 277.922L193.063 277.153ZM190.852 272.918L192.181 275.458L195.182 276.164L193.674 273.881L190.852 272.918ZM188.664 268.759L189.879 271.071L192.379 271.929L190.998 269.836L188.664 268.759ZM186.53 264.698L187.555 266.647L187.562 266.662L189.48 267.561L188.298 265.777L186.53 264.698ZM184.502 260.836L185.239 262.241L186.451 262.987L185.595 261.691L184.502 260.836ZM182.699 257.392L182.912 257.799L183.164 257.999L182.891 257.581L182.699 257.392ZM131.968 24.7428C130.525 26.3636 129.092 27.9873 127.668 29.6141C127.526 30.2188 127.387 30.8246 127.252 31.4316C128.688 29.8198 130.133 28.2114 131.587 26.6063C131.709 25.9882 131.838 25.3689 131.968 24.7428ZM132.958 20.1873C131.569 21.7676 130.19 23.3505 128.822 24.9361C128.67 25.5356 128.519 26.132 128.371 26.7255C129.76 25.1519 131.154 23.581 132.555 22.0126C132.688 21.4079 132.82 20.7987 132.958 20.1918V20.1873ZM134.04 15.5857C132.707 17.1233 131.384 18.6635 130.07 20.2064L129.604 21.9295C130.934 20.4008 132.272 18.8749 133.617 17.3515L134.04 15.5857ZM135.211 10.9493C133.939 12.4375 132.675 13.929 131.42 15.4239L130.95 17.0525C132.217 15.5793 133.49 14.1077 134.77 12.6375C134.913 12.0778 135.064 11.5169 135.211 10.9538V10.9493ZM136.461 6.28365C135.257 7.71486 134.061 9.14868 132.872 10.5851L132.395 12.1362C133.597 10.7178 134.806 9.30193 136.022 7.8887L136.461 6.28365ZM137.816 1.54607C136.685 2.91133 135.562 4.27884 134.445 5.64861L133.969 7.10977C135.097 5.761 136.232 4.41222 137.374 3.06345L137.816 1.54607ZM139.266 -3.21173C138.214 -1.91991 137.168 -0.626953 136.129 0.66713L135.679 1.97655C136.721 0.707947 137.771 -0.558762 138.83 -1.82362C138.978 -2.28333 139.126 -2.74417 139.271 -3.20724L139.266 -3.21173ZM140.797 -7.98416C139.836 -6.78525 138.88 -5.58185 137.929 -4.37395C137.791 -3.99516 137.649 -3.61862 137.512 -3.23984C138.471 -4.42377 139.436 -5.60507 140.408 -6.78375L140.797 -7.98416ZM142.428 -12.7836C141.562 -11.6813 140.7 -10.5764 139.842 -9.46893L139.502 -8.57538C140.355 -9.64465 141.213 -10.7124 142.077 -11.7787L142.428 -12.7836ZM144.155 -17.6167C143.401 -16.6366 142.649 -15.6546 141.901 -14.6707L141.629 -13.9963C142.37 -14.942 143.117 -15.8854 143.868 -16.8265L144.155 -17.6167ZM145.951 -22.415C145.326 -21.581 144.701 -20.7481 144.076 -19.913L143.953 -19.6264C144.561 -20.4146 145.173 -21.2014 145.788 -21.9867L145.951 -22.415ZM147.85 -27.2391L147.278 -26.4635L147.824 -27.1761L147.85 -27.2391ZM131.051 29.2814C129.561 30.9344 128.081 32.5912 126.61 34.2517C120.406 62.6187 118.654 92.2041 123.34 122.212C126.484 142.35 132.528 162.681 142.065 182.96C150.883 201.709 159.68 217.629 168.176 231.729C160.013 214.946 151.516 195.899 143.058 173.207C136.404 155.353 131.884 137.764 129.193 120.532C124.227 88.704 125.503 58.107 131.056 29.2848L131.051 29.2814ZM172.297 241.211L172.133 240.794C162.075 224.663 151.495 206.191 140.879 183.619C131.275 163.199 125.19 142.727 122.022 122.45C117.438 93.0741 118.971 64.108 124.799 36.2917C123.325 37.9612 121.861 39.6333 120.407 41.308C113.676 69.448 111.557 98.2938 116.01 126.801C119.526 149.324 127.144 171.648 139.824 193.253C150.875 212.076 161.827 227.611 172.303 241.215L172.297 241.211ZM174.798 247.448L174.149 245.834C162.783 231.321 150.801 214.644 138.704 194.031C125.921 172.248 118.242 149.746 114.697 127.042C110.344 99.1728 112.224 71.0025 118.528 43.4795C117.091 45.1408 115.664 46.8043 114.247 48.47C106.789 76.9686 104.219 105.721 108.545 133.42C112.371 157.913 121.587 181.592 137.582 203.55C150.294 221.003 162.845 235.152 174.799 247.452L174.798 247.448ZM177.101 253.133L176.171 250.843C163.499 237.959 150.117 223.088 136.536 204.445C120.388 182.28 111.088 158.38 107.227 133.657C103.006 106.619 105.297 78.6028 112.265 50.8C110.889 52.4253 109.521 54.0525 108.164 55.6815C99.7844 85.0253 96.6767 114.208 100.953 141.596C105.042 167.777 115.886 192.336 135.333 213.842C149.65 229.687 163.73 242.267 177.102 253.136L177.101 253.133ZM179.304 258.52L178.2 255.822C164.219 244.57 149.435 231.514 134.376 214.856C114.727 193.122 103.77 168.3 99.6365 141.832C95.4692 115.13 98.2498 86.7573 106.06 58.2082C104.762 59.775 103.471 61.3433 102.188 62.9132C92.7074 93.5057 88.9715 123.54 93.2575 150.989C97.581 178.675 110.073 203.752 133.066 224.139C148.962 238.241 164.536 249.162 179.305 258.523L179.304 258.52ZM181.447 263.736L180.232 260.781C164.947 251.168 148.769 239.933 132.223 225.263C108.958 204.633 96.3162 179.253 91.9396 151.228C87.765 124.497 91.1207 95.3659 99.9459 65.6692C98.7381 67.1581 97.5372 68.6477 96.3433 70.1381C95.1841 73.606 94.0982 77.0619 93.0856 80.5057C84.7209 109.017 81.5965 136.554 85.4689 161.351C90.007 190.412 104.174 215.728 130.799 234.447C148.25 246.722 165.305 255.931 181.448 263.739L181.447 263.736ZM183.548 268.843L182.358 265.951L182.261 265.715C165.675 257.745 148.09 248.335 130.073 235.666C103.104 216.706 88.7516 191.05 84.151 161.595C80.2432 136.565 83.3864 108.799 91.8156 80.0741C92.4886 77.7782 93.196 75.4767 93.9378 73.1695C92.8383 74.5527 91.7448 75.939 90.6571 77.3282C90.0883 78.9115 89.5347 80.4922 88.9965 82.0703C74.4903 124.638 71.1367 164.857 84.2708 196.734C92.3511 216.348 106.69 232.825 128.529 244.771C147.531 255.159 166.05 262.621 183.549 268.847L183.548 268.843ZM185.611 273.872L184.28 270.626C166.39 264.3 147.417 256.72 127.928 246.06C105.797 233.955 91.2562 217.233 83.0519 197.318C69.7626 165.059 73.1183 124.468 87.7401 81.5634L88.0453 80.6765C87.066 81.9377 86.0867 83.1988 85.1189 84.4599C82.2414 91.9921 79.7063 99.4377 77.5137 106.797C65.9788 145.574 64.4546 181.317 76.8688 209.176C85.7314 229.063 101.717 244.956 126.26 255.087C146.79 263.565 166.76 269.252 185.612 273.875L185.611 273.872ZM187.641 278.85L186.287 275.524C167.105 270.846 146.744 265.096 125.786 256.445C100.898 246.171 84.674 230.031 75.6634 209.806C63.0877 181.584 64.6025 145.471 76.2395 106.353C78.0224 100.358 80.0366 94.3018 82.282 88.1836C81.4371 89.2952 80.5891 90.4069 79.7535 91.5196C74.5716 104.32 70.3242 116.884 67.131 129.054C57.7339 164.878 57.4734 197.256 69.3959 222.079C79.0451 242.167 96.7017 257.342 123.987 265.422C146.031 271.953 167.445 275.84 187.642 278.853L187.641 278.85ZM189.638 283.796C189.186 282.672 188.732 281.542 188.275 280.408C167.808 277.373 146.069 273.459 123.638 266.816C95.9651 258.621 78.0377 243.191 68.2134 222.747C56.1191 197.569 56.3566 164.823 65.8444 128.655C68.6572 117.937 72.2827 106.914 76.6406 95.6963C75.9426 96.6349 75.2404 97.5745 74.5497 98.513C67.0643 116.062 61.2833 133.151 57.4849 149.374C49.6192 182.973 50.2589 212.84 61.8792 235.359C72.3223 255.59 91.6666 269.932 121.716 275.757C145.29 280.329 168.125 282.42 189.644 283.801L189.638 283.796ZM191.598 288.721C191.147 287.58 190.694 286.435 190.237 285.286C168.473 283.901 145.353 281.813 121.486 277.185C91.0051 271.277 71.3566 256.678 60.7176 236.067C48.916 213.199 48.243 182.968 56.192 149.017C59.6248 134.354 64.6682 118.993 71.117 103.227C70.5856 103.959 70.0481 104.688 69.5199 105.422C59.7123 127.354 52.4769 148.557 48.3087 168.263C41.5483 200.221 42.8537 228.218 54.324 248.965C65.5662 269.298 86.6201 282.71 119.46 286.105C144.513 288.7 168.763 288.976 191.599 288.727L191.598 288.721ZM193.515 293.638C193.069 292.483 192.623 291.326 192.168 290.164C169.133 290.425 144.651 290.164 119.334 287.545C86.0253 284.101 64.639 270.437 53.1791 249.706C41.5181 228.617 40.17 200.251 47.0053 167.938C50.8152 149.931 57.1703 130.684 65.6975 110.779C65.3516 111.267 64.9984 111.755 64.6557 112.24C52.4842 138.306 43.8195 163.343 39.421 186.11C33.4722 216.876 35.2954 243.478 46.7282 262.833C58.7767 283.233 81.5475 295.638 117.204 296.453C143.719 297.066 169.37 295.527 193.516 293.644L193.515 293.638ZM195.39 298.561C194.952 297.392 194.513 296.225 194.064 295.051C169.771 296.951 143.939 298.513 117.178 297.903C81.0277 297.077 57.8943 284.427 45.6062 263.621C33.9713 243.922 32.096 216.954 38.1166 185.819C42.1578 164.925 49.7588 142.14 60.3499 118.415L59.9456 118.994C45.3655 149.016 35.2819 177.696 30.7198 203.222C25.3732 233.141 27.6152 258.699 39.1001 276.948C51.9602 297.382 76.4677 308.71 114.957 306.81C142.94 305.433 169.964 302.083 195.388 298.567L195.39 298.561ZM197.208 303.495C196.78 302.313 196.352 301.134 195.912 299.949C170.354 303.488 143.176 306.866 115.014 308.256C76.0082 310.181 51.1184 298.615 37.9958 277.764C26.2952 259.174 23.9918 233.242 29.4071 202.947C33.4702 180.192 41.8984 154.953 53.9656 128.506C37.6926 161.336 26.6703 192.525 22.127 219.793C17.2304 249.129 19.835 273.905 31.4397 291.255C45.1176 311.701 71.3722 321.894 112.708 317.165C142.137 313.804 170.516 308.646 197.206 303.5L197.208 303.495ZM198.967 308.446C198.55 307.253 198.133 306.059 197.709 304.867C170.905 310.037 142.399 315.227 112.845 318.608C70.9753 323.398 44.3175 312.976 30.3562 292.107C18.5233 274.419 15.8573 249.262 20.8153 219.537C24.7408 195.996 33.4504 169.571 46.1698 141.715C29.2592 175.86 17.9847 208.113 13.6112 235.978C9.06683 264.936 11.9734 289.132 23.7532 305.736C38.2541 326.174 66.2694 335.184 110.465 327.522C141.286 322.185 171.011 315.224 198.965 308.451L198.967 308.446ZM200.662 313.429C200.262 312.223 199.86 311.018 199.446 309.815C171.429 316.605 141.626 323.589 110.674 328.955C65.9329 336.71 37.4988 327.487 22.6968 306.625C10.6722 289.675 7.6864 265.094 12.2943 235.736C16.0969 211.509 25.0753 184.005 38.4073 154.848C20.8861 190.238 9.36374 223.485 5.13919 251.899C0.725067 281.558 4.26199 305.922 17.2242 321.895C32.8753 341.178 62.3345 348.314 108.225 337.895C140.443 330.578 171.477 321.822 200.66 313.435L200.662 313.429ZM206.931 329.541C207.268 330.789 207.603 332.037 207.923 333.297L215.157 330.156C214.777 328.998 214.381 327.852 213.984 326.707L206.931 329.541ZM205.506 324.439C205.862 325.67 206.216 326.903 206.556 328.142L213.515 325.347C213.112 324.21 212.698 323.081 212.279 321.955L206.325 324.139L205.506 324.439ZM204 319.403C204.375 320.618 204.743 321.836 205.104 323.059L205.902 322.765L211.777 320.609C211.354 319.492 210.923 318.379 210.483 317.27L208.492 317.925L204 319.403ZM202.417 314.424C202.809 315.623 203.193 316.826 203.57 318.032L208.104 316.541L209.948 315.934C209.507 314.834 209.058 313.737 208.602 312.645L202.417 314.424ZM200.765 309.495C201.173 310.682 201.572 311.868 201.963 313.055L208.037 311.307C207.578 310.226 207.114 309.146 206.644 308.067L200.765 309.495ZM199.05 304.614C199.467 305.787 199.879 306.961 200.286 308.133L206.045 306.733C205.572 305.667 205.094 304.602 204.61 303.536L199.05 304.614ZM197.279 299.766C197.709 300.926 198.129 302.084 198.548 303.242L203.981 302.188C203.495 301.136 203.01 300.085 202.512 299.035C200.777 299.278 199.034 299.522 197.282 299.765L197.279 299.766ZM195.467 294.948C195.905 296.094 196.332 297.236 196.76 298.378L201.857 297.666C201.362 296.629 200.869 295.593 200.363 294.555L195.467 294.948ZM193.615 290.154C194.057 291.286 194.489 292.41 194.922 293.535L199.671 293.156C199.169 292.136 198.67 291.116 198.157 290.092L193.615 290.154ZM191.727 285.386C192.171 286.5 192.604 287.605 193.04 288.711L197.427 288.652C196.923 287.65 196.419 286.648 195.906 285.64C194.522 285.558 193.129 285.474 191.727 285.386ZM189.822 280.642C190.262 281.733 190.695 282.813 191.129 283.901C192.471 283.987 193.807 284.069 195.138 284.149C194.636 283.166 194.136 282.186 193.624 281.197L189.822 280.642ZM187.904 275.921L189.188 279.083C190.397 279.26 191.601 279.435 192.802 279.608C192.306 278.653 191.815 277.697 191.311 276.737C190.184 276.469 189.049 276.197 187.909 275.921H187.904ZM185.988 271.232L187.238 274.267L190.433 275.036L188.984 272.268L185.988 271.232ZM184.08 266.59L185.259 269.452L188.004 270.416L186.628 267.797L184.08 266.59ZM182.205 262.017L183.275 264.618L185.526 265.691L184.268 263.298L182.205 262.017ZM180.371 257.568L181.274 259.766L182.965 260.824L181.891 258.775L180.371 257.568ZM178.646 253.349L179.278 254.895L180.293 255.71L179.521 254.226L178.646 253.349ZM177.127 249.613L177.281 249.993L177.386 250.105L177.152 249.656L177.127 249.613ZM138.017 18.0169C136.593 19.5845 135.177 21.1562 133.769 22.732L133.353 24.6619C134.769 23.1063 136.193 21.5533 137.624 20.003C137.752 19.3376 137.889 18.68 138.019 18.0169H138.017ZM138.916 13.4771C137.543 15.0072 136.18 16.5392 134.827 18.0731C134.677 18.7104 134.526 19.3466 134.38 19.9839C135.757 18.4507 137.142 16.9206 138.536 15.3935C138.667 14.7573 138.784 14.1122 138.918 13.4771H138.916ZM139.946 8.84296C138.613 10.3491 137.288 11.8578 135.973 13.3692C135.818 13.9837 135.665 14.5992 135.514 15.2159C136.841 13.7233 138.174 12.2332 139.515 10.7458C139.657 10.1097 139.804 9.47801 139.949 8.84296H139.946ZM140.995 4.25148C139.73 5.69992 138.472 7.15286 137.221 8.61029C137.062 9.20074 136.904 9.79196 136.747 10.3839C138.018 8.93475 139.296 7.48819 140.582 6.04425C140.724 5.44853 140.854 4.84833 140.997 4.25148H140.995ZM142.2 -0.45462C140.981 0.960846 139.77 2.37932 138.567 3.80078C138.402 4.37289 138.236 4.94611 138.073 5.51935C139.292 4.11212 140.517 2.70677 141.75 1.30328L142.2 -0.45462ZM143.45 -5.17534C142.298 -3.81757 141.154 -2.45717 140.018 -1.09416C139.851 -0.55127 139.69 -0.00389099 139.527 0.541245C140.667 -0.795547 141.813 -2.12973 142.965 -3.46127C143.125 -4.03113 143.292 -4.59311 143.451 -5.17197L143.45 -5.17534ZM144.804 -9.92752C143.725 -8.63493 142.654 -7.34012 141.589 -6.04305C141.422 -5.53052 141.254 -5.02135 141.09 -4.50882C142.174 -5.79539 143.263 -7.08049 144.359 -8.36407C144.507 -8.8811 144.651 -9.40488 144.803 -9.92416L144.804 -9.92752ZM146.25 -14.7089C145.245 -13.4838 144.246 -12.2564 143.253 -11.0268C143.096 -10.5704 142.94 -10.113 142.788 -9.65665C143.786 -10.8556 144.788 -12.0545 145.795 -13.2534C145.943 -13.7423 146.096 -14.2234 146.25 -14.7089ZM147.735 -19.4521C146.832 -18.3282 145.933 -17.2042 145.04 -16.0802C144.894 -15.6767 144.745 -15.2754 144.6 -14.8719C145.509 -15.9869 146.424 -17.0996 147.346 -18.2101C147.477 -18.6226 147.6 -19.0419 147.735 -19.4521ZM149.396 -24.3358C148.575 -23.2958 147.759 -22.2553 146.946 -21.2145L146.56 -20.1895C147.374 -21.2033 148.194 -22.2149 149.018 -23.2242L149.396 -24.3358ZM151.087 -29.1431C150.381 -28.2304 149.677 -27.3163 148.977 -26.4006L148.683 -25.6689C149.377 -26.5463 150.075 -27.4227 150.775 -28.2979C150.877 -28.5822 150.985 -28.861 151.087 -29.1431ZM152.858 -33.9549C152.279 -33.1898 151.702 -32.4236 151.126 -31.6563L150.951 -31.2348C151.519 -31.9654 152.089 -32.6945 152.661 -33.4221L152.858 -33.9549ZM154.755 -38.8026L153.428 -36.9952C153.845 -37.5437 154.269 -38.0889 154.69 -38.6362L154.755 -38.8026ZM137.154 22.5802C135.691 24.1718 134.237 25.7667 132.792 27.365C126.903 56.6706 125.443 87.8442 130.512 120.297C133.186 137.42 137.679 154.905 144.299 172.665C150.998 190.636 157.719 206.315 164.28 220.392C158.029 203.565 151.595 184.693 145.249 162.8C130.44 111.691 129.649 64.6745 137.158 22.5802H137.154ZM412 473.169C395.852 558.309 360.768 678.256 302.318 845.045H300.892C360.963 673.7 396.398 551.89 412 466.544V473.169ZM412 527.223C392.576 607.386 360.39 711.339 313.208 845.045H311.778C360.063 708.273 392.679 602.679 412 521.901V527.223ZM412 572.114C391.975 645.397 363.075 735.316 324.093 845.045H322.661C362.541 732.836 391.895 641.365 412 567.268V572.114ZM412 612.423C392.686 677.863 367.231 754.836 334.976 845.045H333.547C366.572 752.716 392.504 674.247 412.002 607.885L412 612.423ZM412 649.846C394.219 706.824 372.279 771.609 345.853 845.045H344.42C371.556 769.669 393.955 703.454 412 645.426V649.846ZM381.586 -161.41C289.449 -118.933 206.083 -52.115 138.849 20.7493C130.973 63.1717 131.545 110.668 146.529 162.371C154.851 191.084 163.319 214.589 171.343 235.101C172.891 238.24 174.425 241.302 175.945 244.289C177.729 247.107 179.495 249.859 181.242 252.543C183.257 255.036 185.245 257.472 187.207 259.849C189.447 262.034 191.659 264.172 193.842 266.264C196.241 268.097 198.607 269.895 200.941 271.659L201.085 271.771L203.572 273.245C205.377 274.314 207.161 275.372 208.922 276.42C211.775 277.713 214.581 278.993 217.342 280.261C220.329 281.265 223.268 282.27 226.159 283.275C229.349 284.033 232.482 284.804 235.557 285.588C238.875 286.105 242.133 286.645 245.331 287.208C248.754 287.499 252.113 287.826 255.408 288.188C258.927 288.276 262.38 288.409 265.765 288.588C269.397 288.492 272.958 288.452 276.448 288.466C280.142 288.203 283.761 288.004 287.307 287.869C291.057 287.458 294.73 287.118 298.326 286.849C302.137 286.302 305.871 285.834 309.528 285.444C313.385 284.778 317.163 284.196 320.863 283.697C324.734 282.928 328.525 282.248 332.236 281.656C336.146 280.789 339.977 280.016 343.727 279.337C347.686 278.379 351.558 277.521 355.343 276.762C376.791 271.188 395.82 268.531 411.996 269.905V271.351C401.339 270.428 389.407 271.283 376.336 273.592C389.629 272.331 401.573 272.831 412.004 275.52V277.008C398.586 273.48 382.573 273.657 364.337 276.597C381.297 275.263 396.061 276.735 408.266 281.97C409.543 282.518 410.784 283.12 412.004 283.752V285.376C410.627 284.642 409.227 283.944 407.774 283.321C392.981 276.973 374.304 276.24 352.434 279.381C368.858 278.397 383.218 279.988 395.17 285.079C401.475 287.766 407.097 291.435 412.004 296.199V298.14C407.003 293.072 401.214 289.214 394.683 286.431C380.738 280.49 363.415 279.388 343.291 281.614L342.437 281.87C357.5 281.461 370.775 283.233 381.982 287.975C394.914 293.446 405.069 302.861 412.004 317.423V320.57C405.182 304.947 394.855 294.979 381.502 289.323C369.115 284.082 354.117 282.526 336.92 283.557C336.195 283.782 335.468 284.012 334.738 284.247C347.475 284.548 358.855 286.485 368.682 290.614C435.253 318.582 430.058 446.622 291.43 845.043H290.004C428.461 447.282 434.009 319.61 368.201 291.966C357.432 287.442 344.738 285.586 330.393 285.654C329.36 285.993 328.321 286.338 327.277 286.688C337.585 287.527 346.94 289.507 355.225 292.959C422.251 320.908 418.649 445.146 280.527 845.043H279.105C417.048 445.813 420.999 321.942 354.74 294.312C345.667 290.528 335.266 288.543 323.707 287.894C322.434 288.33 321.154 288.772 319.869 289.221C327.711 290.371 334.962 292.219 341.556 294.947C409.23 322.948 407.441 442.976 269.632 845.045H268.204C405.838 443.657 407.977 323.985 341.085 296.307C333.807 293.296 325.705 291.369 316.869 290.28C315.411 290.798 313.943 291.323 312.467 291.853C317.821 293.029 322.877 294.551 327.609 296.495C396.178 324.641 396.491 439.915 258.726 845.041H257.303C394.888 440.616 394.926 325.683 327.137 297.857C321.801 295.666 316.038 294.014 309.887 292.799C308.27 293.391 306.644 293.992 305.008 294.604C307.845 295.458 310.589 296.422 313.239 297.496C383.069 325.921 385.889 435.688 247.813 845.046H246.393C384.288 436.385 381.82 326.959 312.774 298.852C309.494 297.527 306.151 296.389 302.759 295.446C301.01 296.104 299.251 296.773 297.481 297.452L298.231 297.75C369.857 326.658 375.791 429.776 236.902 845.045H235.483C374.185 430.49 368.604 327.697 297.766 299.107C297.012 298.807 296.251 298.511 295.483 298.22C293.617 298.94 291.742 299.67 289.857 300.411C356.958 333.864 361.456 436.457 225.99 845.045H224.569C360.701 434.594 355.615 333.613 288.049 301.123C286.095 301.894 284.129 302.676 282.152 303.468C344.084 341.775 346.659 444.527 215.068 845.045H213.65C345.777 443.034 342.741 341.658 280.489 304.135C278.46 304.951 276.419 305.777 274.366 306.615C331.225 349.614 331.943 452.401 204.141 845.045H202.725C330.852 451.508 329.798 349.753 272.738 307.278C270.655 308.131 268.556 308.993 266.444 309.863C318.299 357.534 317.193 460.4 193.212 845.042H191.794C316.031 459.723 316.894 357.713 264.932 310.494C262.773 311.388 260.603 312.293 258.42 313.208C305.358 365.439 302.478 468.329 182.275 845.045H180.861C301.255 467.837 303.973 365.645 257 313.803C254.777 314.734 252.542 315.676 250.296 316.628C292.404 373.315 287.801 476.175 171.326 845.045H169.916C286.519 475.856 291.029 373.551 248.943 317.203C246.666 318.168 244.376 319.143 242.075 320.125C279.44 381.163 273.154 483.952 160.38 845.047H158.974C271.828 483.789 278.068 381.428 240.767 320.682C238.443 321.676 236.107 322.678 233.757 323.688C266.47 388.979 258.544 491.658 149.426 845.047H148.018C257.168 491.638 265.088 389.267 232.48 324.238L225.348 327.312C253.477 396.758 243.969 499.281 138.462 845.047H137.056C242.553 499.385 252.097 397.066 224.085 327.856L216.848 330.988C240.482 404.497 229.432 506.811 127.491 845.045H126.093C227.982 507.036 239.098 404.829 215.594 331.534L208.267 334.714C227.482 412.213 214.935 514.27 116.521 845.045H115.117C213.457 514.584 226.086 412.548 207.004 335.263L200.615 338.041C168.631 351.943 134.812 366.645 99.7615 380.696C54.0396 399.026 21.3133 401.592 0.00204468 392.319V390.758C20.9736 400.161 53.5291 397.684 99.301 379.333C134.402 365.261 168.179 350.578 200.118 336.695L206.662 333.851C206.341 332.578 206.002 331.316 205.665 330.055L203.704 330.842C171.578 343.757 137.475 357.465 101.95 370.347C53.1103 388.057 19.8391 387.347 0.00204468 373.348V371.608C19.4005 385.876 52.4977 386.752 101.527 368.973C136.928 356.136 171.075 342.41 203.242 329.479L205.292 328.655C204.949 327.4 204.591 326.155 204.232 324.911C172.642 336.5 139.045 348.791 104.134 360.002C54.4709 375.95 21.754 372.397 3.4671 355.136C2.25415 353.991 1.09756 352.778 0.00204468 351.503V349.337C1.34634 351.01 2.79581 352.582 4.34015 354.04C22.2853 370.978 54.5824 374.403 103.758 358.61C138.681 347.395 172.26 335.111 203.831 323.529C203.468 322.292 203.095 321.059 202.713 319.83C172.269 329.834 139.892 340.386 106.319 349.656C58.3496 362.903 27.0651 357.514 9.91068 339.121C5.80804 334.723 2.51382 329.585 0.00204468 323.786V320.164C2.57114 327.057 6.16748 333.072 10.8462 338.088C27.6662 356.123 58.5277 361.355 105.989 348.248C139.62 338.961 171.921 328.441 202.286 318.463C201.904 317.242 201.514 316.024 201.116 314.807C171.885 323.209 140.795 331.98 108.499 339.31C62.0793 349.851 32.1939 342.527 16.222 322.851C2.9743 306.529 -0.655365 281.757 3.82443 251.669C7.51971 226.84 16.7429 198.366 30.6291 168.028C16.1157 197.354 5.68094 225.151 0.00619507 249.931V244.189C4.9173 224.683 12.6402 203.456 22.8499 181.18C13.5039 200.07 5.83096 218.302 0.000976563 235.494V231.361C4.16821 219.493 9.18765 207.155 15.0031 194.468C9.39117 205.821 4.39047 216.901 0.000976563 227.709V224.148C2.24713 218.734 4.64746 213.244 7.202 207.679C4.68219 212.78 2.28186 217.828 0.000976563 222.824V219.58C3.65149 211.697 7.59753 203.685 11.8391 195.545C18.4931 182.78 25.8701 169.739 33.9066 156.532C36.1243 152.719 38.4052 148.89 40.7493 145.044C43.0961 140.997 45.5142 136.93 48.0034 132.843C50.4579 128.608 52.9878 124.354 55.593 120.083C57.8558 116.187 60.1825 112.277 62.5731 108.352C64.9241 104.295 67.3456 100.223 69.8376 96.1369C72.1428 92.1558 74.5164 88.163 76.9584 84.1587C79.2906 80.1236 81.6952 76.0772 84.1719 72.0197C86.5417 67.9269 88.9861 63.8236 91.5052 59.7098C93.7207 55.8763 96.002 52.0379 98.3488 48.1946C99.9372 45.4371 101.558 42.6789 103.212 39.9199C104.029 38.5554 104.861 37.1909 105.695 35.8275C108.024 31.7812 110.425 27.7382 112.899 23.6986C115.184 19.731 117.538 15.7682 119.959 11.8103C122.274 7.78566 124.658 3.76968 127.112 -0.237686C128.425 -2.52386 129.762 -4.80667 131.121 -7.08611C132.116 -8.75484 133.123 -10.421 134.142 -12.0844C136.423 -16.0618 138.77 -20.019 141.182 -23.9559C143.482 -27.976 145.849 -31.9677 148.283 -35.9308C150.529 -39.861 152.836 -43.7575 155.206 -47.6202C157.488 -51.6238 159.83 -55.5806 162.23 -59.4906C164.462 -63.4095 166.746 -67.273 169.082 -71.0811C170.947 -74.3653 172.844 -77.6005 174.776 -80.7866C193.351 -114.046 215.176 -141.228 234.019 -161.413H235.912C224.412 -149.174 211.742 -134.287 199.359 -116.961C211.256 -132.675 224.102 -147.524 237.814 -161.41H239.755C223.672 -145.225 208.779 -127.717 195.209 -109.045C210.732 -129.312 226.929 -147.009 242.01 -161.41H244.026C226.432 -144.74 207.227 -123.495 189.32 -98.849C207.968 -123.221 227.934 -144.523 246.665 -161.41H248.756C227.382 -142.309 204.309 -117.36 183.381 -88.5927C204.823 -116.636 228.329 -141.307 250.697 -160.509L251.75 -161.409H253.913C253.118 -160.734 252.322 -160.056 251.523 -159.373C226.782 -138.13 200.641 -110.183 177.465 -78.3735C188.299 -92.5463 199.795 -106.116 211.907 -119.029C226.866 -134.97 242.224 -149.282 257.239 -161.403H259.472C244.053 -149.076 228.244 -134.401 212.844 -117.989C198.134 -102.308 184.34 -85.6565 171.542 -68.1317C199.507 -104.752 231.707 -137.335 263.098 -161.41H265.39C232.713 -136.613 199.039 -102.439 170.122 -63.9977C168.501 -61.8419 166.895 -59.6734 165.304 -57.4921C196.419 -98.3106 233.06 -134.934 269.287 -161.41H271.653C232.595 -133.192 192.927 -92.9773 160.167 -48.325L160.143 -48.271C194.163 -92.7132 234.912 -132.894 275.77 -161.41H278.23C236.791 -132.829 195.341 -92.0602 160.852 -46.9222C159.88 -45.6484 158.912 -44.3708 157.949 -43.0894L157.719 -42.5477C194.13 -89.2289 237.992 -131.624 282.545 -161.41H285.081C238.842 -130.875 193.226 -86.5684 155.843 -37.8629L155.508 -37.02C194.322 -85.885 241.292 -130.418 289.563 -161.41H292.173C242.236 -129.751 193.577 -83.4145 153.821 -32.6634C153.69 -32.315 153.563 -31.962 153.432 -31.6125C194.678 -82.6266 244.771 -129.252 296.796 -161.41H299.492C245.813 -128.658 194.082 -80.3258 151.93 -27.5223L151.466 -26.2162C195.165 -79.403 248.425 -128.106 304.264 -161.41H307.03C249.587 -127.6 194.767 -77.3203 150.192 -22.4857C150.028 -22.0013 149.859 -21.5214 149.696 -21.0347C195.86 -76.3177 252.266 -127.014 311.906 -161.405H314.74C253.493 -126.555 195.557 -74.335 148.53 -17.4683C148.363 -16.9502 148.205 -16.4264 148.04 -15.906C196.683 -73.2807 256.25 -125.944 319.711 -161.405H322.628C257.553 -125.539 196.472 -71.4115 146.972 -12.5104C146.798 -11.9394 146.622 -11.3718 146.451 -10.7986C197.606 -70.2808 260.369 -124.902 327.694 -161.41H330.671C261.766 -124.552 197.54 -68.5476 145.554 -7.64023C145.382 -7.03889 145.209 -6.43869 145.04 -5.83511C198.693 -67.3641 264.63 -123.89 335.795 -161.41H338.868C266.086 -123.564 198.677 -65.686 144.175 -2.73741C144.012 -2.13272 143.862 -1.51903 143.707 -0.913193C199.898 -64.4934 269.029 -122.893 344.065 -161.41H347.176C270.549 -122.614 199.976 -62.9176 142.958 2.01703C142.795 2.65994 142.624 3.295 142.465 3.94128C201.192 -61.6677 273.523 -121.92 352.419 -161.41H355.628C275.126 -121.674 201.36 -60.1706 141.802 6.75909C141.648 7.40651 141.507 8.06067 141.358 8.71144C202.632 -58.9061 278.162 -120.969 360.917 -161.41H364.162C279.792 -120.748 202.838 -57.4505 140.733 11.4585C140.584 12.1329 140.432 12.8072 140.288 13.4816C204.125 -56.1456 282.871 -120.026 369.509 -161.41H372.836C284.595 -119.839 204.435 -54.7867 139.77 16.0983C139.635 16.7726 139.505 17.447 139.369 18.1214C205.767 -53.4762 287.709 -119.117 378.195 -161.411L381.586 -161.41Z" fill="#D9E2ED"/>
        <rect width="300.868" height="406.509" transform="matrix(1 0 0 -1 111.132 821)" fill="url(#paint0_linear_2322_31814)"/>
    </g>
    <defs>
        <linearGradient id="paint0_linear_2322_31814" x1="150.434" y1="0" x2="150.434" y2="1069.37" gradientUnits="userSpaceOnUse">
            <stop offset="0.125" stop-color="white"/>
            <stop offset="0.9375" stop-color="white" stop-opacity="0"/>
        </linearGradient>
        <clipPath id="clip0_2322_31814">
            <rect width="973" height="412" fill="white" transform="matrix(0 1 -1 0 412 -152)"/>
        </clipPath>
    </defs>
</svg>
