<svg width="68" height="68" viewBox="0 0 68 68" fill="none" xmlns="http://www.w3.org/2000/svg">
<path id="Vector" d="M65.8667 29.8001L61.3333 24.5334C60.4667 23.5334 59.7667 21.6668 59.7667 20.3334V14.6668C59.7667 11.1334 56.8667 8.23345 53.3333 8.23345H47.6667C46.3667 8.23345 44.4667 7.53345 43.4667 6.66678L38.2 2.13345C35.9 0.166781 32.1333 0.166781 29.8 2.13345L24.5667 6.70011C23.5667 7.53345 21.6667 8.23345 20.3667 8.23345H14.6C11.0667 8.23345 8.16665 11.1334 8.16665 14.6668V20.3668C8.16665 21.6668 7.46665 23.5334 6.63332 24.5334L2.13332 29.8334C0.199986 32.1334 0.199986 35.8668 2.13332 38.1668L6.63332 43.4668C7.46665 44.4668 8.16665 46.3335 8.16665 47.6334V53.3334C8.16665 56.8668 11.0667 59.7668 14.6 59.7668H20.3667C21.6667 59.7668 23.5667 60.4668 24.5667 61.3335L29.8333 65.8668C32.1333 67.8335 35.9 67.8335 38.2333 65.8668L43.5 61.3335C44.5 60.4668 46.3667 59.7668 47.7 59.7668H53.3667C56.9 59.7668 59.8 56.8668 59.8 53.3334V47.6668C59.8 46.3668 60.5 44.4668 61.3667 43.4668L65.9 38.2001C67.8333 35.9001 67.8333 32.1001 65.8667 29.8001Z" fill="#2dc653"/>
</svg>
